# xmcd
#
# Track frame offsets:
#	150
#	14005
#	34790
#	50182
#	68620
#	90212
#	105757
#	120472
#	143062
#	163212
#	181097
#	207047
#	234127
#	254415
#	267257
#	287070
#
# Disc length: 4091
#
# Revision: 2
# Processed by: cddbd v1.5.1PL0 Copyright (c) Steve Scherf et al.
# Submitted via: ExactAudioCopy v0.95a3
# Normalized: r1:TDELIM( - )
#
DISCID=d10ff910
DTITLE=Various Artist - Southern Rock    Country Style
DYEAR=2004
DGENRE=Country Rock
TTITLE0=Tracy Byrd - If You Wanna Get To Heaven
TTITLE1=Charlie Daniels - Sweet Home Alabama
TTITLE2=Collin Raye - There Goes Another Love Song
TTITLE3=Mark Chesnutt - Heard It In A Love Song
TTITLE4=Jimmy Wayne - Midnight Rider
TTITLE5=Billy Currington - Keep Your Hands To Yourself
TTITLE6=Trace Adkins - I Know A Little
TTITLE7=Mark Wills - Fooled Around And Fell In Love
TTITLE8=Brian McComas - Amie
TTITLE9=James Otto - Ramblin' Man
TTITLE10=Hank Williams Jr. - Tuesday's Gone
TTITLE11=Anita Cochran - Can't You See
TTITLE12=Neal McCoy - Keep On Smilin'
TTITLE13=Jeff Carson - Train, Train
TTITLE14=Dusty Drake - Hold On Loosely
TTITLE15=Brad Wolf - Jealous Again
EXTD=
EXTT0=
EXTT1=
EXTT2=
EXTT3=
EXTT4=
EXTT5=
EXTT6=
EXTT7=
EXTT8=
EXTT9=
EXTT10=
EXTT11=
EXTT12=
EXTT13=
EXTT14=
EXTT15=
PLAYORDER=
